<svg xmlns="http://www.w3.org/2000/svg" width="1200" height="800" viewBox="0 0 1200 800">
<rect width="100%" height="100%" fill="white"/>
<text x="600.0" y="28" font-size="20" text-anchor="middle" fill="#111" font-family="SimSun, Microsoft YaHei, Arial" font-weight="bold">现场判定流程图</text>
<rect x="70" y="110" width="180" height="70" rx="12" fill="#f7f7f7" stroke="#333" stroke-width="1.2" opacity="1.0"/>
<text x="160.0" y="138" font-size="14" text-anchor="middle" fill="#111" font-family="SimSun, Microsoft YaHei, Arial" font-weight="bold">输入</text>
<text x="160.0" y="160" font-size="12" text-anchor="middle" fill="#111" font-family="SimSun, Microsoft YaHei, Arial" font-weight="normal">样品类型/延迟/天气/剩磁</text>
<rect x="300" y="110" width="180" height="70" rx="12" fill="#f7f7f7" stroke="#333" stroke-width="1.2" opacity="1.0"/>
<text x="390.0" y="138" font-size="14" text-anchor="middle" fill="#111" font-family="SimSun, Microsoft YaHei, Arial" font-weight="bold">预处理</text>
<text x="390.0" y="160" font-size="12" text-anchor="middle" fill="#111" font-family="SimSun, Microsoft YaHei, Arial" font-weight="normal">清洗/校验/匹配</text>
<rect x="530" y="110" width="180" height="70" rx="12" fill="#f7f7f7" stroke="#333" stroke-width="1.2" opacity="1.0"/>
<text x="620.0" y="138" font-size="14" text-anchor="middle" fill="#111" font-family="SimSun, Microsoft YaHei, Arial" font-weight="bold">预测</text>
<text x="620.0" y="160" font-size="12" text-anchor="middle" fill="#111" font-family="SimSun, Microsoft YaHei, Arial" font-weight="normal">R_s(t)</text>
<rect x="760" y="110" width="180" height="70" rx="12" fill="#f7f7f7" stroke="#333" stroke-width="1.2" opacity="1.0"/>
<text x="850.0" y="138" font-size="14" text-anchor="middle" fill="#111" font-family="SimSun, Microsoft YaHei, Arial" font-weight="bold">阈值映射</text>
<text x="850.0" y="160" font-size="12" text-anchor="middle" fill="#111" font-family="SimSun, Microsoft YaHei, Arial" font-weight="normal">Θ_s(t)</text>
<rect x="990" y="110" width="180" height="70" rx="12" fill="#f7f7f7" stroke="#333" stroke-width="1.2" opacity="1.0"/>
<text x="1080.0" y="138" font-size="14" text-anchor="middle" fill="#111" font-family="SimSun, Microsoft YaHei, Arial" font-weight="bold">Bootstrap</text>
<text x="1080.0" y="160" font-size="12" text-anchor="middle" fill="#111" font-family="SimSun, Microsoft YaHei, Arial" font-weight="normal">区间估计</text>
<rect x="300" y="300" width="180" height="70" rx="12" fill="#f7f7f7" stroke="#333" stroke-width="1.2" opacity="1.0"/>
<text x="390.0" y="328" font-size="14" text-anchor="middle" fill="#111" font-family="SimSun, Microsoft YaHei, Arial" font-weight="bold">三区域判定</text>
<text x="390.0" y="350" font-size="12" text-anchor="middle" fill="#111" font-family="SimSun, Microsoft YaHei, Arial" font-weight="normal">支持/灰区/不支持</text>
<rect x="760" y="300" width="180" height="70" rx="12" fill="#f7f7f7" stroke="#333" stroke-width="1.2" opacity="1.0"/>
<text x="850.0" y="328" font-size="14" text-anchor="middle" fill="#111" font-family="SimSun, Microsoft YaHei, Arial" font-weight="bold">复检建议</text>
<text x="850.0" y="350" font-size="12" text-anchor="middle" fill="#111" font-family="SimSun, Microsoft YaHei, Arial" font-weight="normal">补充证据</text>
<line x1="250" y1="145" x2="300" y2="145" stroke="#555" stroke-width="2"/>
<line x1="480" y1="145" x2="530" y2="145" stroke="#555" stroke-width="2"/>
<line x1="710" y1="145" x2="760" y2="145" stroke="#555" stroke-width="2"/>
<line x1="940" y1="145" x2="990" y2="145" stroke="#555" stroke-width="2"/>
<line x1="1080" y1="180" x2="1080" y2="250" stroke="#555" stroke-width="2"/>
<line x1="1080" y1="250" x2="480" y2="250" stroke="#555" stroke-width="2"/>
<line x1="480" y1="250" x2="480" y2="300" stroke="#555" stroke-width="2"/>
<line x1="480" y1="335" x2="760" y2="335" stroke="#555" stroke-width="2"/>
<line x1="850" y1="370" x2="850" y2="430" stroke="#555" stroke-width="2"/>
<text x="640" y="250" font-size="12" text-anchor="middle" fill="#111" font-family="SimSun, Microsoft YaHei, Arial" font-weight="normal">判定输出</text>
</svg>